<svg width="64" height="64" viewBox="0 0 64 64" fill="none" xmlns="http://www.w3.org/2000/svg">
<g clip-path="url(#clip0_3_5)">
<path d="M32 5.33333C17.28 5.33333 5.33337 17.28 5.33337 32C5.33337 46.72 17.28 58.6667 32 58.6667C46.72 58.6667 58.6667 46.72 58.6667 32C58.6667 17.28 46.72 5.33333 32 5.33333ZM32 16C37.1467 16 41.3334 20.1867 41.3334 25.3333C41.3334 30.48 37.1467 34.6667 32 34.6667C26.8534 34.6667 22.6667 30.48 22.6667 25.3333C22.6667 20.1867 26.8534 16 32 16ZM32 53.3333C26.5867 53.3333 20.1867 51.1467 15.6267 45.6533C20.1334 42.1333 25.8134 40 32 40C38.1867 40 43.8667 42.1333 48.3734 45.6533C43.8134 51.1467 37.4134 53.3333 32 53.3333Z" fill="#C889A2"/>
</g>
<defs>
<clipPath id="clip0_3_5">
<rect width="64" height="64" fill="white"/>
</clipPath>
</defs>
</svg>
