<svg width="54" height="54" viewBox="0 0 54 54" fill="none" xmlns="http://www.w3.org/2000/svg">
<path d="M46.4444 32.5556L44.2111 48.1833C44.0167 49.5361 43.9222 50.2139 43.5944 50.725C43.3064 51.1731 42.8957 51.5289 42.4111 51.75C41.8639 52 41.1806 52 39.8194 52H32.5556M46.4444 32.5556H32.5556M46.4444 32.5556C50.0639 30.8778 52 26.3445 52 22.3723C52 18.1057 49.1389 14.4557 45.0833 12.9362C44.6711 12.78 44.3155 12.5033 44.0628 12.1421C43.8102 11.7809 43.6721 11.352 43.6667 10.9112C43.6667 7.39737 40.5556 4.54738 36.7222 4.54738C36.0926 4.54738 35.487 4.62052 34.9056 4.76682C33.7056 5.06404 32.3639 4.99737 31.3306 4.36404C28.7714 2.80511 25.8299 1.98679 22.8333 2.00016C14.3944 2.00016 7.55556 8.26959 7.55556 16.0057C7.55556 16.9834 6.91667 17.8779 6.00833 18.3862C3.60556 19.7223 2 22.1501 2 24.9168C2 28.464 3.97778 31.6945 7.55556 32.5556M32.5556 52V32.5556M32.5556 52H21.4444M32.5556 32.5556H21.4444M7.55556 32.5556L9.78889 48.1833V48.1889C9.98333 49.5389 10.0778 50.2167 10.4056 50.725C10.6936 51.1731 11.1043 51.5289 11.5889 51.75C12.1361 52 12.8194 52 14.1806 52H21.4444M7.55556 32.5556H21.4444M21.4444 52V32.5556" stroke="#C889A2" stroke-width="4" stroke-linecap="round" stroke-linejoin="round"/>
</svg>
